<mxfile host="app.diagrams.net" modified="2024-01-17T05:24:55.374Z" agent="Mozilla/5.0 (Macintosh; Intel Mac OS X 10_15_7) AppleWebKit/537.36 (KHTML, like Gecko) Chrome/120.0.0.0 Safari/537.36" version="22.1.17" etag="EHCf97H4f112jaMXdRrr" type="github">
  <diagram name="Page-1" id="fm-RTBIMuhjhwVvVDZ4T">
    <mxGraphModel>
      <root>
        <mxCell id="0" />
        <mxCell id="1" parent="0" />
      </root>
    </mxGraphModel>
  </diagram>
</mxfile>
